<mxfile host="65bd71144e" scale="5" border="0">
    <diagram id="FgvC-St80B0F2kgGzDLZ" name="Page-1">
        <mxGraphModel dx="1669" dy="1133" grid="1" gridSize="10" guides="1" tooltips="1" connect="1" arrows="1" fold="1" page="1" pageScale="1" pageWidth="350" pageHeight="200" math="0" shadow="0">
            <root>
                <mxCell id="0"/>
                <mxCell id="1" parent="0"/>
                <mxCell id="2" value="&lt;div style=&quot;color: rgb(0, 0, 0); background-color: rgb(255, 255, 255); font-family: &amp;quot;Droid Sans Mono&amp;quot;, &amp;quot;monospace&amp;quot;, monospace; font-weight: normal; font-size: 24px; line-height: 129%;&quot;&gt;&lt;div style=&quot;line-height: 129%;&quot;&gt;&lt;span style=&quot;color: #0000ff;&quot;&gt;def&lt;/span&gt;&lt;span style=&quot;color: #000000;&quot;&gt; &lt;/span&gt;&lt;span style=&quot;color: #795e26;&quot;&gt;add&lt;/span&gt;&lt;span style=&quot;color: #000000;&quot;&gt;(&lt;/span&gt;&lt;span style=&quot;color: #001080;&quot;&gt;x&lt;/span&gt;&lt;span style=&quot;color: #000000;&quot;&gt;, &lt;/span&gt;&lt;span style=&quot;color: #001080;&quot;&gt;y&lt;/span&gt;&lt;span style=&quot;color: #000000;&quot;&gt;):&lt;/span&gt;&lt;/div&gt;&lt;div style=&quot;line-height: 129%;&quot;&gt;&lt;span style=&quot;color: #000000;&quot;&gt;&lt;/span&gt;&lt;span style=&quot;color: #af00db;&quot;&gt;&amp;nbsp; &amp;nbsp; return&lt;/span&gt;&lt;span style=&quot;color: #000000;&quot;&gt; &lt;/span&gt;&lt;span style=&quot;color: #001080;&quot;&gt;x&lt;/span&gt;&lt;span style=&quot;color: #000000;&quot;&gt; + &lt;/span&gt;&lt;span style=&quot;color: #001080;&quot;&gt;y&lt;/span&gt;&lt;/div&gt;&lt;/div&gt;" style="text;whiteSpace=wrap;html=1;" parent="1" vertex="1">
                    <mxGeometry x="10" y="49.01" width="240" height="80" as="geometry"/>
                </mxCell>
                <mxCell id="3" value="" style="shape=curlyBracket;whiteSpace=wrap;html=1;rounded=1;flipH=1;labelPosition=right;verticalLabelPosition=middle;align=left;verticalAlign=middle;fontSize=14;fontColor=#E6E6E6;rotation=90;" parent="1" vertex="1">
                    <mxGeometry x="31.439999999999998" y="98.82000000000001" width="15" height="57.88" as="geometry"/>
                </mxCell>
                <mxCell id="4" value="&lt;font style=&quot;font-size: 12px;&quot; color=&quot;#000000&quot;&gt;Indentation&lt;/font&gt;" style="text;html=1;strokeColor=none;fillColor=none;align=center;verticalAlign=middle;whiteSpace=wrap;rounded=0;fontSize=14;fontColor=#E6E6E6;" parent="1" vertex="1">
                    <mxGeometry x="10" y="129.01" width="60" height="30" as="geometry"/>
                </mxCell>
                <mxCell id="5" value="&lt;font style=&quot;font-size: 12px;&quot; color=&quot;#000000&quot;&gt;Return&lt;br&gt;statement&lt;/font&gt;" style="text;html=1;strokeColor=none;fillColor=none;align=center;verticalAlign=middle;whiteSpace=wrap;rounded=0;fontSize=14;fontColor=#E6E6E6;" parent="1" vertex="1">
                    <mxGeometry x="70" y="129.01" width="90" height="30" as="geometry"/>
                </mxCell>
                <mxCell id="6" value="" style="shape=curlyBracket;whiteSpace=wrap;html=1;rounded=1;flipH=1;labelPosition=right;verticalLabelPosition=middle;align=left;verticalAlign=middle;fontSize=14;fontColor=#E6E6E6;rotation=90;" parent="1" vertex="1">
                    <mxGeometry x="106.33999999999997" y="85.61" width="15" height="84.83" as="geometry"/>
                </mxCell>
                <mxCell id="7" value="" style="shape=curlyBracket;whiteSpace=wrap;html=1;rounded=1;flipH=1;labelPosition=right;verticalLabelPosition=middle;align=left;verticalAlign=middle;fontSize=14;fontColor=#E6E6E6;rotation=90;" parent="1" vertex="1">
                    <mxGeometry x="200" y="85.61" width="15" height="84.83" as="geometry"/>
                </mxCell>
                <mxCell id="8" value="&lt;font style=&quot;font-size: 12px;&quot; color=&quot;#000000&quot;&gt;Instructions&lt;/font&gt;" style="text;html=1;strokeColor=none;fillColor=none;align=center;verticalAlign=middle;whiteSpace=wrap;rounded=0;fontSize=14;fontColor=#E6E6E6;" parent="1" vertex="1">
                    <mxGeometry x="162.5" y="129.01" width="90" height="30" as="geometry"/>
                </mxCell>
                <mxCell id="9" value="" style="shape=curlyBracket;whiteSpace=wrap;html=1;rounded=1;flipH=1;labelPosition=right;verticalLabelPosition=middle;align=left;verticalAlign=middle;fontSize=14;fontColor=#E6E6E6;rotation=-90;" parent="1" vertex="1">
                    <mxGeometry x="31.439999999999998" y="17.729999999999997" width="15" height="57.88" as="geometry"/>
                </mxCell>
                <mxCell id="10" value="&lt;font style=&quot;font-size: 12px;&quot; color=&quot;#000000&quot;&gt;Keyword&lt;/font&gt;" style="text;html=1;strokeColor=none;fillColor=none;align=center;verticalAlign=middle;whiteSpace=wrap;rounded=0;fontSize=14;fontColor=#E6E6E6;" parent="1" vertex="1">
                    <mxGeometry x="10" y="9.26" width="60" height="30" as="geometry"/>
                </mxCell>
                <mxCell id="11" value="" style="shape=curlyBracket;whiteSpace=wrap;html=1;rounded=1;flipH=1;labelPosition=right;verticalLabelPosition=middle;align=left;verticalAlign=middle;fontSize=14;fontColor=#E6E6E6;rotation=-90;" parent="1" vertex="1">
                    <mxGeometry x="83.16000000000003" y="25.909999999999997" width="15" height="41.53" as="geometry"/>
                </mxCell>
                <mxCell id="12" value="&lt;font style=&quot;font-size: 12px;&quot; color=&quot;#000000&quot;&gt;Name&lt;/font&gt;" style="text;html=1;strokeColor=none;fillColor=none;align=center;verticalAlign=middle;whiteSpace=wrap;rounded=0;fontSize=14;fontColor=#E6E6E6;" parent="1" vertex="1">
                    <mxGeometry x="61.34000000000003" y="9.26" width="60" height="30" as="geometry"/>
                </mxCell>
                <mxCell id="13" value="" style="shape=curlyBracket;whiteSpace=wrap;html=1;rounded=1;flipH=1;labelPosition=right;verticalLabelPosition=middle;align=left;verticalAlign=middle;fontSize=14;fontColor=#E6E6E6;rotation=-90;" parent="1" vertex="1">
                    <mxGeometry x="155.91000000000003" width="15" height="93.35" as="geometry"/>
                </mxCell>
                <mxCell id="14" value="&lt;font style=&quot;font-size: 12px;&quot; color=&quot;#000000&quot;&gt;Arguments&lt;/font&gt;" style="text;html=1;strokeColor=none;fillColor=none;align=center;verticalAlign=middle;whiteSpace=wrap;rounded=0;fontSize=14;fontColor=#E6E6E6;" parent="1" vertex="1">
                    <mxGeometry x="133.41000000000003" y="9.26" width="60" height="30" as="geometry"/>
                </mxCell>
            </root>
        </mxGraphModel>
    </diagram>
</mxfile>
